# xmcd CD database file
#
# Track frame offsets:
#	183
#	33640
#	52425
#	97493
#	128235
#
# Disc length: 2415 seconds
#
# Revision: 0
# Processed by: cddbd v1.5.2PL0 Copyright (c) Steve Scherf et al.
# Submitted via: CDex 1.70beta2
#
DISCID=50096d05
DTITLE=Pifarely, Dominique - Insula Dukcamara
DYEAR=1988
DGENRE=Jazz
TTITLE0=Insula Dukcamara
TTITLE1=L'heure Bleue
TTITLE2=Passage
TTITLE3=Looking for the Waterfalls
TTITLE4=Wild Garden
EXTD=YEAR: 1988
EXTT0=
EXTT1=
EXTT2=
EXTT3=
EXTT4=
PLAYORDER=
